<?xml version="1.0" encoding="utf-8"?>
<!-- Generator: Adobe Illustrator 25.1.0, SVG Export Plug-In . SVG Version: 6.00 Build 0)  -->
<svg version="1.1" id="Capa_1" xmlns="http://www.w3.org/2000/svg" xmlns:xlink="http://www.w3.org/1999/xlink" x="0px" y="0px"
	 viewBox="0 0 270 133" style="enable-background:new 0 0 270 133;" xml:space="preserve">
<style type="text/css">
	.st0{fill:none;}
	.st1{fill:#FFFFFF;}
</style>
<g>
	<rect class="st0" width="270" height="133"/>
	<g>
		<g>
			<path class="st1" d="M180.2,74.8c-1.2,0-2.3,0.5-3.1,1.2c0,0,0,0,0,0l-0.1,0.1c0,0,0,0,0,0c-2.4,2.4-5.7,3.8-9.4,3.8
				c-7.4,0-13.5-6-13.5-13.5s6-13.5,13.5-13.5c3.7,0,7.1,1.5,9.5,3.9l0,0c0.8,0.8,1.9,1.3,3.1,1.3c2.5,0,4.5-2,4.5-4.5
				c0-1.2-0.5-2.3-1.2-3.1c0,0,0,0,0,0c0,0-0.1-0.1-0.1-0.1c0,0,0,0,0,0c-4.1-4-9.6-6.5-15.8-6.5c-12.4,0-22.4,10-22.4,22.4
				s10,22.4,22.4,22.4c6.1,0,11.7-2.4,15.7-6.4c0,0,0.1-0.1,0.1-0.1c0.8-0.8,1.3-1.9,1.3-3.1C184.7,76.8,182.7,74.8,180.2,74.8z"/>
			<path class="st1" d="M136.1,44.1c-2.5,0-4.5,2-4.5,4.5v35.9c0,2.5,2,4.5,4.5,4.5s4.5-2,4.5-4.5V48.6
				C140.6,46.1,138.6,44.1,136.1,44.1z"/>
			<path class="st1" d="M221.4,48.5C217.7,45.7,213,44,208,44c-12.4,0-22.4,10-22.4,22.4c0,12.4,10,22.4,22.4,22.4
				c5,0,9.7-1.7,13.4-4.5v0.1c0,2.5,2,4.5,4.5,4.5c2.5,0,4.5-2,4.5-4.5V66.4C230.4,59.1,226.9,52.6,221.4,48.5z M208,79.9
				c-7.4,0-13.4-6-13.4-13.5c0-7.4,6-13.4,13.4-13.4c7.2,0,13,5.6,13.4,12.7v1.6C221,74.3,215.2,79.9,208,79.9z"/>
		</g>
		<g>
			<path class="st1" d="M113.8,66.6c0,14.7-8.6,27.3-21.1,33.1c-0.1,0-0.1,0.1-0.2,0.1c0,0-0.1,0-0.1,0c0,0,0,0,0,0
				c-0.2,0.1-0.5,0.1-0.7,0.1c-1.2,0-2.1-0.9-2.1-2.1c0-0.4,0.1-0.8,0.4-1.2c4.9-7.3,7.9-16.2,8-25.9c0.2-15.5-6.8-29.4-17.9-38
				c-0.3-0.3-0.5-0.7-0.5-1.1c0-0.8,0.7-1.5,1.5-1.5c0.1,0,0.1,0,0.1,0C99.5,32.2,113.8,47.8,113.8,66.6z"/>
			<path class="st1" d="M89.8,78.2C89.1,62.7,79.5,49,66.1,42.4c-0.1,0-0.2-0.1-0.3-0.1c-0.1-0.1-0.3-0.1-0.4-0.2
				c-2-0.9-4.1-1.4-6.4-1.4c-5.5,0-10.4,2.9-13.2,7.2c-0.3,0.5-0.6,1-0.9,1.5c0,0.1-0.1,0.1-0.1,0.2c-2.7,5.1-4.3,10.9-4.3,17.1
				c0,17,11.7,31.4,27.4,35.4c0,0,0,0,0,0c0.7,0.2,1.5,0.4,2.3,0.5c0,0,0,0,0,0c0.8,0.1,1.6,0.2,2.4,0.2c7.1,0,13.2-4.6,15.4-11
				c0,0,0,0,0-0.1c0.1-0.2,0.1-0.4,0.2-0.6c0.1-0.2,0.1-0.4,0.2-0.6c0,0,0,0,0,0c0,0,0,0,0,0C89.6,86.6,90,82.5,89.8,78.2z"/>
		</g>
	</g>
</g>
</svg>
